<svg width="100" height="100" viewBox="0 0 100 100" fill="none" xmlns="http://www.w3.org/2000/svg">
<path fill-rule="evenodd" clip-rule="evenodd" d="M50 100C77.6142 100 100 77.6142 100 50C100 22.3858 77.6142 0 50 0C22.3858 0 0 22.3858 0 50C0 77.6142 22.3858 100 50 100ZM19 49C18.4477 49 18 49.4477 18 50V53C18 53.5523 18.4477 54 19 54H82C82.5523 54 83 53.5523 83 53V50C83 49.4477 82.5523 49 82 49H19ZM18 70C18 69.4477 18.4477 69 19 69H82C82.5523 69 83 69.4477 83 70V73C83 73.5523 82.5523 74 82 74H19C18.4477 74 18 73.5523 18 73V70ZM19 29C18.4477 29 18 29.4477 18 30V33C18 33.5523 18.4477 34 19 34H82C82.5523 34 83 33.5523 83 33V30C83 29.4477 82.5523 29 82 29H19Z" fill="#373737"/>
</svg>
